<svg xmlns="http://www.w3.org/2000/svg" viewBox="0 0 320 420">
  <defs>
    <linearGradient id="lapel" x1="0" y1="0" x2="0" y2="1">
      <stop offset="0" stop-color="#0d1a2d" />
      <stop offset="1" stop-color="#1c2f4d" />
    </linearGradient>
    <linearGradient id="jacket" x1="0" y1="0" x2="1" y2="1">
      <stop offset="0" stop-color="#1a2f4a" />
      <stop offset="1" stop-color="#223f64" />
    </linearGradient>
  </defs>
  <rect width="320" height="420" fill="#ded3c2" />
  <g transform="translate(40 30)">
    <path d="M70 40 L120 0 L170 40 L200 300 L120 360 L40 300 Z" fill="url(#jacket)" />
    <path d="M120 0 L150 60 L135 290 L105 290 L90 60 Z" fill="#f9f9f6" />
    <path d="M120 0 L70 40 L100 260 L120 270 L140 260 L170 40 Z" fill="url(#lapel)" />
    <rect x="112" y="90" width="16" height="120" fill="#111" rx="6" />
    <rect x="60" y="160" width="30" height="50" fill="#182c45" rx="6" />
    <rect x="150" y="160" width="30" height="50" fill="#182c45" rx="6" />
    <path d="M60 250 L120 310 L180 250" fill="none" stroke="#101a2b" stroke-width="10" stroke-linecap="round" />
  </g>
</svg>