<svg xmlns="http://www.w3.org/2000/svg" viewBox="0 0 1600 1200">
  <defs>
    <style>
      .label { font: 60px 'Georgia', serif; fill: #f5ede1; letter-spacing: 4px; }
      .frame { stroke: #f5ede1; stroke-width: 16; fill: none; }
    </style>
  </defs>
  <rect width="1600" height="1200" fill="#f7f3eb" />
  <rect x="0" y="0" width="400" height="600" fill="#1c2a45" />
  <rect x="400" y="0" width="400" height="600" fill="#c7a574" />
  <rect x="800" y="0" width="400" height="600" fill="#f7f4ef" />
  <rect x="1200" y="0" width="400" height="600" fill="#343434" />
  <rect x="0" y="600" width="400" height="600" fill="#454545" />
  <rect x="400" y="600" width="400" height="600" fill="#995d32" />
  <rect x="800" y="600" width="400" height="600" fill="#233047" />
  <rect x="1200" y="600" width="400" height="600" fill="#6d4629" />
  <rect x="40" y="40" width="320" height="520" class="frame" />
  <text x="200" y="520" text-anchor="middle" class="label">Suit</text>
  <rect x="440" y="40" width="320" height="520" class="frame" />
  <text x="600" y="520" text-anchor="middle" class="label">Trench</text>
  <rect x="840" y="40" width="320" height="520" class="frame" />
  <text x="1000" y="520" text-anchor="middle" class="label">Shirt</text>
  <rect x="1240" y="40" width="320" height="520" class="frame" />
  <text x="1400" y="520" text-anchor="middle" class="label">Knit</text>
  <rect x="40" y="640" width="320" height="520" class="frame" />
  <text x="200" y="1120" text-anchor="middle" class="label">Blazer</text>
  <rect x="440" y="640" width="320" height="520" class="frame" />
  <text x="600" y="1120" text-anchor="middle" class="label">Crew</text>
  <rect x="840" y="640" width="320" height="520" class="frame" />
  <text x="1000" y="1120" text-anchor="middle" class="label">Trousers</text>
  <rect x="1240" y="640" width="320" height="520" class="frame" />
  <text x="1400" y="1120" text-anchor="middle" class="label">Derby</text>
</svg>
